# xmcd
#
# Track frame offsets:
#  180
#  22211
#  36111
#  49018
#  60080
#  81684
#  106983
#  125272
#  136455
#  150228
#  163002
#  175838
#  193689
#  213503
#  226849
#
# Disc length: 3405 seconds
#
# Revision: 0
# Processed by: cddbd v1.5.1PL2 Copyright (c) Steve Scherf et al.
# Submitted via: Collectorz.com_Music_Collector 6.9
#
DISCID=c40d4b0f
DTITLE=Linder And Brock - Workin For A Livin'
DYEAR=1900
DGENRE=
TTITLE0=Fast Movin Train
TTITLE1=Sentimental Lady
TTITLE2=The Lion Sleeps Tonight
TTITLE3=Tequila
TTITLE4=Crazy
TTITLE5=Summertime
TTITLE6=Respect
TTITLE7=Workin' For A Livin'
TTITLE8=Love Is Strange
TTITLE9=Little Less Talk And A Lot More Action
TTITLE10=William Tell Overture
TTITLE11=Little Rock
TTITLE12=Oreo Cookie Blues
TTITLE13=Proud Mary
TTITLE14=Baker Street
EXTD=
EXTT0=
EXTT1=
EXTT2=
EXTT3=
EXTT4=
EXTT5=
EXTT6=
EXTT7=
EXTT8=
EXTT9=
EXTT10=
EXTT11=
EXTT12=
EXTT13=
EXTT14=
PLAYORDER=
